<?xml version="1.0" encoding="utf-8"?>
<!-- Generator: Adobe Illustrator 17.0.1, SVG Export Plug-In . SVG Version: 6.00 Build 0)  -->
<!DOCTYPE svg PUBLIC "-//W3C//DTD SVG 1.1//EN" "http://www.w3.org/Graphics/SVG/1.1/DTD/svg11.dtd">
<svg version="1.1" id="Layer_1" xmlns="http://www.w3.org/2000/svg" xmlns:xlink="http://www.w3.org/1999/xlink" x="0px" y="0px"
	 width="70px" height="48px" viewBox="0 0 70 48" style="enable-background:new 0 0 70 48;" xml:space="preserve">
<path style="fill-rule:evenodd;clip-rule:evenodd;fill:#0082CA;" d="M8.869,1.777L18.71,1.78l-1.367,7.898L7.502,9.675L8.869,1.777
	L8.869,1.777z M20.011,1.78l27.732,0.008l-0.745,4.207l3.731,0.001l1.209-4.237c1.604-0.469,3.485-0.51,5.637-0.51
	c4.062,0.001,7.032,0.757,8.902,2.267c1.87,1.509,2.719,3.915,2.556,7.207l-9.35,0.538c0.003-1.428-0.334-2.471-1.013-3.123
	c-0.673-0.644-1.704-0.97-3.088-0.97c-1.147,0-2.046,0.236-2.708,0.724c-0.66,0.481-1.051,1.073-1.172,1.768
	c-0.087,0.503,0.072,0.955,0.475,1.362c0.393,0.422,1.422,0.807,3.098,1.17c4.132,0.926,7.039,1.867,8.733,2.814
	c1.693,0.947,2.845,2.117,3.445,3.523c0.602,1.398,0.759,2.967,0.458,4.706c-0.352,2.035-1.247,3.914-2.669,5.63
	c-1.423,1.724-3.224,3.025-5.405,3.913c-2.173,0.887-4.803,1.331-7.881,1.33c-5.401-0.001-8.966-1.038-10.684-3.125
	c-1.727-2.08-2.446-4.721-2.165-7.933l9.446-0.582c-0.063,1.517,0.152,2.671,0.636,3.47c0.783,1.288,2.124,1.925,4.003,1.925
	c1.399,0,2.535-0.325,3.411-0.983c0.868-0.658,1.378-1.42,1.528-2.286c0.142-0.821-0.085-1.561-0.698-2.213
	c-0.612-0.651-2.178-1.266-4.713-1.843c-4.138-0.97-6.987-2.251-8.545-3.857c-1.572-1.606-2.144-3.648-1.714-6.134
	c0.053-0.307,0.122-0.61,0.208-0.91L36.67,9.635l-4.14,23.928l-9.819-0.002l4.14-23.928L18.653,9.63L20.011,1.78L20.011,1.78z
	 M7.274,10.989l9.841,0.003l-3.905,22.565L3.37,33.555L7.274,10.989L7.274,10.989z M0.948,46.733l2.71,0.001l0.79-3.98
	c0.091,0.007,0.193,0.014,0.308,0.019c0.112,0.007,0.235,0.01,0.367,0.01c0.315,0,0.649-0.021,1.004-0.067
	c0.353-0.048,0.714-0.125,1.076-0.235c0.365-0.108,0.719-0.257,1.061-0.444c0.345-0.19,0.665-0.423,0.958-0.707
	c0.293-0.281,0.548-0.618,0.762-1.007c0.214-0.392,0.374-0.846,0.479-1.36c0.069-0.349,0.086-0.68,0.054-1
	c-0.033-0.317-0.111-0.611-0.239-0.878c-0.128-0.267-0.299-0.495-0.513-0.69c-0.338-0.315-0.788-0.541-1.347-0.678
	c-0.561-0.137-1.234-0.204-2.024-0.202c-0.682,0.002-1.298,0.024-1.843,0.067c-0.548,0.043-1.023,0.096-1.423,0.163L0.948,46.733
	L0.948,46.733z M5.475,37.577c0.082-0.024,0.197-0.043,0.342-0.06c0.143-0.017,0.31-0.026,0.495-0.026
	c0.364,0,0.661,0.063,0.901,0.183c0.236,0.123,0.4,0.301,0.495,0.536c0.093,0.235,0.107,0.526,0.039,0.867
	c-0.067,0.339-0.201,0.637-0.402,0.894c-0.198,0.257-0.457,0.456-0.775,0.601c-0.318,0.144-0.691,0.218-1.114,0.221
	c-0.137,0-0.252-0.002-0.349-0.01c-0.094-0.005-0.183-0.012-0.264-0.019L5.475,37.577L5.475,37.577z M17.311,35.59l-3.452-0.001
	l-5.37,11.146l2.756,0.001l1.166-2.595l2.756,0.001l0.182,2.596l2.818,0.001L17.311,35.59L17.311,35.59z M13.115,42.222l0.985-2.235
	c0.068-0.161,0.139-0.339,0.22-0.539c0.08-0.197,0.165-0.401,0.251-0.613c0.086-0.214,0.171-0.42,0.252-0.622
	c0.084-0.204,0.163-0.392,0.235-0.562h0.031c0.005,0.171,0.009,0.356,0.013,0.557c0.004,0.199,0.007,0.406,0.01,0.615
	c0.002,0.209,0.005,0.416,0.01,0.613c0.004,0.2,0.009,0.382,0.015,0.551l0.083,2.235L13.115,42.222L13.115,42.222z M26.474,41.476
	c0.399-0.137,0.771-0.336,1.123-0.598c0.349-0.262,0.648-0.574,0.895-0.937s0.415-0.764,0.507-1.204
	c0.098-0.507,0.104-0.939,0.018-1.3c-0.084-0.358-0.234-0.656-0.453-0.892c-0.219-0.238-0.479-0.423-0.781-0.562
	c-0.303-0.14-0.626-0.241-0.966-0.308c-0.34-0.065-0.675-0.108-1.005-0.128c-0.329-0.019-0.629-0.029-0.898-0.027
	c-0.415,0-0.817,0.009-1.209,0.031c-0.393,0.019-0.763,0.048-1.115,0.081c-0.35,0.034-0.667,0.074-0.958,0.118l-2.18,10.988
	l2.71,0.001l0.861-4.341l0.526,0c0.303-0.005,0.549,0.043,0.732,0.144c0.184,0.099,0.32,0.274,0.402,0.524
	c0.085,0.25,0.123,0.601,0.12,1.048c0.003,0.44,0.015,0.836,0.034,1.192c0.022,0.356,0.048,0.656,0.079,0.901
	c0.031,0.248,0.063,0.423,0.093,0.531l2.818,0.001c-0.037-0.113-0.066-0.279-0.092-0.5c-0.028-0.223-0.049-0.481-0.069-0.772
	c-0.017-0.291-0.037-0.596-0.054-0.913c-0.014-0.317-0.033-0.627-0.05-0.93c-0.02-0.356-0.07-0.673-0.147-0.949
	c-0.077-0.276-0.193-0.509-0.346-0.702c-0.156-0.192-0.359-0.339-0.61-0.44L26.474,41.476L26.474,41.476z M23.396,40.523
	l0.598-3.014c0.082-0.021,0.196-0.041,0.349-0.053c0.149-0.012,0.332-0.019,0.548-0.019c0.163-0.002,0.335,0.017,0.512,0.058
	c0.18,0.041,0.344,0.115,0.49,0.224c0.149,0.108,0.258,0.262,0.324,0.461c0.069,0.199,0.075,0.457,0.015,0.771
	c-0.06,0.305-0.187,0.577-0.375,0.813c-0.188,0.233-0.431,0.418-0.729,0.552c-0.295,0.134-0.637,0.204-1.019,0.206L23.396,40.523
	L23.396,40.523z M38.924,35.596l-8.175-0.002l-0.441,2.221l2.709,0.001l-1.771,8.926l2.725,0.001l1.771-8.926l2.74,0.001
	L38.924,35.596L38.924,35.596z M49.111,35.598l-2.446-0.001l-0.526,2.653c-0.122,0.618-0.231,1.216-0.329,1.8
	c-0.095,0.581-0.178,1.132-0.246,1.653c-0.07,0.521-0.124,1-0.163,1.435h-0.031c-0.057-0.283-0.12-0.579-0.192-0.889
	c-0.073-0.31-0.15-0.62-0.23-0.933c-0.082-0.312-0.166-0.618-0.253-0.911c-0.089-0.293-0.174-0.565-0.261-0.815l-1.251-3.995
	l-2.911-0.001l-2.212,11.147l2.446,0.001l0.544-2.74c0.198-0.998,0.364-1.916,0.505-2.755c0.141-0.839,0.255-1.583,0.346-2.235
	h0.062c0.051,0.291,0.114,0.594,0.186,0.911c0.071,0.317,0.15,0.637,0.233,0.959c0.083,0.324,0.17,0.639,0.259,0.945
	c0.089,0.308,0.179,0.594,0.265,0.863l1.286,4.053l2.709,0.001L49.111,35.598L49.111,35.598z M56.005,44.628l-4.072-0.001
	l0.515-2.596l3.638,0.001l0.412-2.076l-3.638-0.001l0.443-2.235l3.839,0.001l0.421-2.12l-6.564-0.002l-2.212,11.146l6.797,0.002
	L56.005,44.628L56.005,44.628z M63.874,41.486c0.399-0.137,0.771-0.336,1.123-0.598c0.349-0.262,0.648-0.574,0.895-0.937
	c0.247-0.363,0.415-0.764,0.507-1.204c0.098-0.507,0.104-0.939,0.018-1.3c-0.084-0.358-0.234-0.656-0.453-0.892
	c-0.219-0.238-0.479-0.423-0.781-0.562c-0.303-0.139-0.626-0.24-0.966-0.308c-0.34-0.065-0.675-0.108-1.005-0.128
	c-0.329-0.019-0.629-0.029-0.898-0.027c-0.415,0-0.817,0.009-1.209,0.031c-0.393,0.019-0.763,0.048-1.115,0.082
	c-0.35,0.033-0.667,0.074-0.958,0.117l-2.18,10.988l2.71,0.001l0.861-4.34l0.526,0c0.303-0.005,0.549,0.043,0.732,0.144
	c0.184,0.098,0.32,0.274,0.402,0.524c0.085,0.25,0.123,0.601,0.12,1.048c0.003,0.44,0.015,0.836,0.034,1.192
	c0.022,0.356,0.048,0.656,0.079,0.901c0.031,0.248,0.063,0.423,0.093,0.531l2.818,0.001c-0.037-0.113-0.066-0.279-0.092-0.5
	c-0.028-0.224-0.049-0.481-0.069-0.772c-0.017-0.291-0.037-0.596-0.054-0.913c-0.014-0.317-0.033-0.627-0.05-0.93
	c-0.02-0.356-0.07-0.673-0.147-0.949c-0.077-0.277-0.193-0.51-0.346-0.702c-0.156-0.192-0.359-0.339-0.61-0.44L63.874,41.486
	L63.874,41.486z M60.797,40.533l0.598-3.014c0.081-0.022,0.196-0.041,0.348-0.053c0.149-0.012,0.332-0.019,0.548-0.019
	c0.163-0.002,0.335,0.017,0.512,0.058c0.18,0.041,0.344,0.115,0.49,0.224c0.149,0.108,0.258,0.262,0.324,0.461
	c0.069,0.199,0.075,0.457,0.015,0.771c-0.06,0.305-0.187,0.577-0.375,0.813c-0.188,0.233-0.431,0.418-0.729,0.552
	c-0.295,0.134-0.636,0.204-1.019,0.206L60.797,40.533L60.797,40.533z"/>
</svg>
